<svg width="527" height="458" viewBox="0 0 527 458" fill="none" xmlns="http://www.w3.org/2000/svg">
<g clip-path="url(#clip0)">
<path d="M527 222.51C527 324.406 437.399 410.299 315.135 436.669C295.279 440.94 275.107 443.578 254.821 444.554C253.834 444.603 252.847 444.652 251.854 444.688C246.574 444.906 241.255 445.017 235.896 445.019C226.578 445.019 217.37 444.688 208.273 444.025C203.226 443.665 198.221 443.207 193.259 442.65C144.998 437.233 100.585 422.768 63.0729 401.575C58.3857 398.93 53.8088 396.18 49.3424 393.324C41.1637 388.114 33.2676 382.474 25.6874 376.426C-24.4204 336.466 17.3562 251.171 43.4709 197.473C113.956 52.5419 75.126 0 235.896 0C396.666 0 527 99.618 527 222.51Z" fill="#C7C0F5"/>
<path d="M411.784 91.7315C361.815 90.8349 361.823 16.5333 411.785 15.644C461.752 16.5405 461.744 90.8422 411.784 91.7315Z" fill="white"/>
<path d="M317.286 202.457C267.317 201.561 267.325 127.259 317.288 126.37C367.255 127.266 367.247 201.568 317.286 202.457Z" fill="white"/>
<path d="M415.858 314.893C365.889 313.997 365.897 239.695 415.86 238.806C465.827 239.702 465.819 314.004 415.858 314.893Z" fill="white"/>
<path d="M411.784 91.7315C361.815 90.8349 361.823 16.5333 411.785 15.644C461.752 16.5405 461.744 90.8422 411.784 91.7315ZM411.784 17.9497C364.844 18.7921 364.851 88.5903 411.785 89.4258C458.724 88.5834 458.716 18.7852 411.784 17.9497Z" fill="#C7C0F5"/>
<path d="M193.083 442.121C192.971 441.762 192.893 441.394 192.851 441.02L178.337 358.223C178.316 358.01 178.283 357.798 178.239 357.588C177.932 356.079 177.166 354.701 176.047 353.643C174.928 352.586 173.51 351.899 171.987 351.678L89.2299 352.038C87.6641 351.803 86.0643 352.075 84.6642 352.815C83.2642 353.555 82.1373 354.723 81.4483 356.149C80.1023 358.956 78.7843 361.803 77.4942 364.69C72.2711 376.32 67.464 388.615 63.0729 401.575C100.585 422.768 144.998 437.233 193.259 442.65L193.083 442.121Z" fill="#5B4DBE"/>
<path d="M273.868 220.555C273.664 221.45 273.532 222.36 273.471 223.276L202.242 264.392L184.929 254.419L166.472 278.596L195.407 299.231C197.744 300.898 200.559 301.761 203.429 301.691C206.299 301.621 209.068 300.622 211.322 298.843L284.771 240.865C288.086 242.092 291.696 242.281 295.12 241.406C298.545 240.531 301.622 238.633 303.943 235.966C306.263 233.298 307.717 229.987 308.111 226.472C308.504 222.957 307.819 219.406 306.147 216.291C304.474 213.175 301.893 210.643 298.747 209.031C295.601 207.419 292.039 206.803 288.535 207.266C285.031 207.729 281.751 209.249 279.131 211.622C276.511 213.996 274.675 217.112 273.868 220.555V220.555Z" fill="white"/>
<path d="M201.266 260.283C201.05 259.232 200.61 258.239 199.977 257.372C199.343 256.506 198.531 255.786 197.594 255.262L164.91 236.974C160.567 233.621 155.072 232.128 149.631 232.823C144.189 233.517 139.244 236.342 135.881 240.678C132.518 245.014 131.01 250.508 131.688 255.954C132.367 261.401 135.176 266.356 139.5 269.734L165.558 296.809C166.302 297.582 167.204 298.185 168.202 298.578C169.2 298.972 170.27 299.145 171.341 299.087C172.412 299.028 173.458 298.74 174.407 298.241C175.357 297.742 176.188 297.044 176.843 296.195L181.918 289.608L183.652 287.365L199.864 266.342C200.456 265.574 200.889 264.697 201.139 263.76C201.457 262.628 201.5 261.436 201.266 260.283Z" fill="#F6C01C"/>
<path d="M153.943 204.521C169.847 188.608 169.847 162.807 153.943 146.894C138.039 130.98 112.253 130.98 96.3489 146.894C80.4447 162.807 80.4447 188.608 96.3489 204.521C112.253 220.435 138.039 220.435 153.943 204.521Z" fill="white"/>
<path d="M176.639 329.942C178.274 327.495 188.671 310.978 184.737 291.618C184.449 290.183 184.086 288.763 183.652 287.365C181.798 281.538 178.838 276.124 174.933 271.419C174.982 270.122 174.968 268.845 174.891 267.576V267.569C174.316 258.748 170.576 250.432 164.359 244.152C158.142 237.872 149.867 234.051 141.058 233.392L95.5103 229.929C89.6476 229.451 83.7566 230.405 78.3443 232.71C72.9319 235.014 68.1604 238.601 64.4403 243.16C63.5836 244.199 62.7813 245.282 62.0367 246.404C62.0358 246.404 62.0348 246.404 62.034 246.404C62.0331 246.405 62.0324 246.405 62.0317 246.406C62.0311 246.407 62.0306 246.407 62.0302 246.408C62.0299 246.409 62.0298 246.41 62.0298 246.411C59.1579 250.748 57.2522 255.652 56.4422 260.791C55.6322 265.93 55.9368 271.183 57.3354 276.194L57.7232 277.901L62.5794 299.207L70.6993 334.858L77.4942 364.69L78.2132 367.836C78.5922 369.483 79.5174 370.953 80.8383 372.007C82.1591 373.061 83.7977 373.637 85.4871 373.64C85.8933 373.642 86.299 373.609 86.6996 373.541L174.834 359.083C176.078 358.884 177.25 358.369 178.239 357.588C178.832 357.115 179.353 356.556 179.783 355.931C180.357 355.1 180.754 354.159 180.951 353.168C181.147 352.177 181.138 351.156 180.924 350.169L176.639 329.942Z" fill="#F6C01C"/>
<path d="M3.18684 450.274C1.69196 448.14 0.682774 445.705 0.230379 443.139C-0.222015 440.573 -0.106616 437.939 0.568448 435.422C1.24351 432.906 2.46182 430.568 4.13756 428.574C5.8133 426.579 7.9057 424.977 10.2674 423.879L60.4481 269.506L89.529 283.313L34.6232 433.624C36.2033 437.716 36.2285 442.246 34.6937 446.355C33.159 450.464 30.1711 453.868 26.2962 455.92C22.4213 457.972 17.9285 458.531 13.6693 457.49C9.41013 456.45 5.68039 453.882 3.18684 450.274Z" fill="white"/>
<path d="M89.1876 233.039C83.8117 231.421 78.0228 231.9 72.9855 234.379C67.9481 236.859 64.0362 241.155 62.0366 246.404C62.0357 246.404 62.0348 246.404 62.0339 246.404C62.0331 246.405 62.0323 246.405 62.0317 246.406C62.031 246.407 62.0305 246.407 62.0302 246.408C62.0299 246.409 62.0297 246.41 62.0297 246.411C61.8463 246.883 61.6773 247.377 61.5293 247.871L57.2788 256.891L44.4366 284.149C43.9457 285.188 43.6845 286.32 43.671 287.469C43.6575 288.618 43.8919 289.756 44.3583 290.806C44.8247 291.856 45.512 292.792 46.3734 293.552C47.2347 294.312 48.2498 294.877 49.3493 295.208L51.8517 295.962L62.5794 299.207L81.6176 304.962L87.9613 306.88C89.0604 307.212 90.2182 307.303 91.3557 307.147C92.4932 306.992 93.5838 306.592 94.5531 305.976C95.5224 305.36 96.3476 304.543 96.9726 303.579C97.5975 302.615 98.0074 301.528 98.1744 300.391L104.039 260.587C105.705 254.963 105.078 248.908 102.295 243.746C99.512 238.584 94.7994 234.734 89.1876 233.039Z" fill="#F6C01C"/>
<path d="M162.542 160.889C148.03 173.591 125.752 176.54 108.439 168.052C116.216 177.284 130.986 222.856 130.986 222.856C130.986 222.856 89.2807 218.47 83.3883 217.21C48.5858 209.763 61.2362 119.579 98.3202 120.034C104.601 120.112 110.092 120.872 114.272 125.562C117.047 117.78 125.871 113.196 134.107 113.789C142.344 114.382 149.793 119.333 155.091 125.67C159.32 130.801 162.372 136.798 164.032 143.237C165.693 149.676 165.922 156.402 164.702 162.939L162.542 160.889Z" fill="#5B4DBE"/>
<path d="M317.286 202.457C267.317 201.561 267.325 127.259 317.288 126.37C367.254 127.266 367.247 201.568 317.286 202.457ZM317.286 128.676C270.346 129.518 270.353 199.316 317.288 200.152C364.226 199.309 364.219 129.511 317.286 128.676Z" fill="#C7C0F5"/>
<path d="M415.858 314.893C365.889 313.997 365.897 239.695 415.86 238.806C465.827 239.702 465.819 314.004 415.858 314.893ZM415.858 241.111C368.918 241.954 368.925 311.752 415.859 312.588C462.798 311.745 462.791 241.947 415.858 241.111Z" fill="#C7C0F5"/>
<path d="M347.219 283.264C346.991 283.271 346.767 283.209 346.574 283.088C346.381 282.967 346.229 282.792 346.136 282.584C346.043 282.376 346.014 282.145 346.052 281.92C346.09 281.696 346.194 281.488 346.351 281.322L350.187 277.267C350.307 277.14 350.372 276.97 350.367 276.795C350.362 276.62 350.288 276.454 350.161 276.333L346.086 272.474C345.973 272.368 345.882 272.24 345.819 272.098C345.756 271.956 345.721 271.803 345.717 271.648C345.713 271.493 345.739 271.338 345.794 271.193C345.85 271.048 345.933 270.916 346.04 270.803C346.255 270.577 346.55 270.445 346.862 270.435C347.173 270.426 347.476 270.539 347.705 270.752L353.187 275.878C353.295 275.979 353.382 276.101 353.443 276.235C353.504 276.37 353.537 276.516 353.541 276.664C353.545 276.812 353.52 276.959 353.467 277.097C353.413 277.235 353.333 277.361 353.231 277.468L348.018 282.911C347.809 283.129 347.521 283.256 347.219 283.264Z" fill="white"/>
<path d="M343.03 277.362C342.905 277.477 342.742 277.543 342.572 277.547L329.79 277.9C329.697 277.903 329.605 277.887 329.518 277.854C329.432 277.821 329.353 277.771 329.285 277.708C329.218 277.644 329.164 277.568 329.126 277.483C329.088 277.399 329.068 277.307 329.065 277.215C329.062 277.122 329.078 277.03 329.111 276.943C329.144 276.857 329.194 276.778 329.258 276.71C329.322 276.643 329.398 276.589 329.483 276.551C329.567 276.513 329.658 276.493 329.751 276.49L342.533 276.138C342.677 276.134 342.818 276.174 342.938 276.252C343.059 276.331 343.152 276.444 343.206 276.577C343.26 276.71 343.272 276.857 343.241 276.997C343.209 277.137 343.136 277.264 343.03 277.362Z" fill="white"/>
<path d="M248.539 170.828C248.312 170.835 248.087 170.774 247.895 170.652C247.702 170.531 247.549 170.356 247.456 170.148C247.363 169.94 247.334 169.709 247.373 169.484C247.411 169.26 247.515 169.052 247.672 168.887L251.507 164.831C251.627 164.704 251.692 164.534 251.687 164.359C251.683 164.184 251.609 164.018 251.482 163.897L247.406 160.038C247.294 159.932 247.203 159.804 247.14 159.662C247.076 159.52 247.042 159.367 247.037 159.212C247.033 159.057 247.059 158.903 247.115 158.758C247.17 158.613 247.254 158.48 247.36 158.367C247.575 158.141 247.871 158.009 248.182 157.999C248.494 157.99 248.797 158.103 249.025 158.316L254.508 163.442C254.616 163.543 254.703 163.665 254.763 163.8C254.824 163.934 254.858 164.08 254.862 164.228C254.866 164.376 254.84 164.523 254.787 164.661C254.734 164.799 254.654 164.925 254.551 165.032L249.339 170.475C249.129 170.693 248.842 170.82 248.539 170.828Z" fill="white"/>
<path d="M244.351 164.926C244.225 165.041 244.063 165.107 243.893 165.112L231.11 165.464C231.018 165.467 230.926 165.451 230.839 165.418C230.752 165.385 230.673 165.335 230.606 165.272C230.539 165.208 230.485 165.132 230.447 165.047C230.409 164.963 230.388 164.871 230.386 164.779C230.383 164.686 230.399 164.594 230.432 164.507C230.465 164.421 230.515 164.342 230.578 164.274C230.642 164.207 230.719 164.153 230.803 164.115C230.888 164.078 230.979 164.057 231.072 164.054L243.854 163.702C243.997 163.698 244.139 163.738 244.259 163.816C244.379 163.895 244.472 164.008 244.526 164.141C244.58 164.275 244.593 164.421 244.561 164.561C244.53 164.701 244.456 164.828 244.351 164.926Z" fill="white"/>
<path d="M342.99 60.1023C342.762 60.1089 342.538 60.0477 342.345 59.9266C342.152 59.8055 342 59.6298 341.907 59.4219C341.814 59.2139 341.785 58.9831 341.823 58.7586C341.861 58.534 341.965 58.3259 342.122 58.1606L345.958 54.1052C346.078 53.9778 346.143 53.808 346.138 53.6329C346.133 53.4579 346.059 53.2919 345.932 53.1714L341.857 49.3125C341.744 49.2058 341.653 49.0779 341.59 48.9362C341.527 48.7944 341.492 48.6416 341.488 48.4864C341.483 48.3312 341.51 48.1767 341.565 48.0317C341.621 47.8867 341.704 47.754 341.811 47.6412C342.026 47.4151 342.321 47.2829 342.633 47.2733C342.944 47.2637 343.247 47.3776 343.476 47.59L348.958 52.7162C349.066 52.8172 349.153 52.9387 349.214 53.0737C349.274 53.2086 349.308 53.3542 349.312 53.5022C349.316 53.6501 349.291 53.7974 349.237 53.9354C349.184 54.0735 349.104 54.1996 349.002 54.3065L343.789 59.749C343.579 59.9676 343.292 60.0946 342.99 60.1023Z" fill="white"/>
<path d="M338.801 54.1999C338.676 54.3153 338.513 54.3813 338.343 54.3857L325.561 54.7383C325.468 54.741 325.376 54.7254 325.289 54.6924C325.203 54.6594 325.124 54.6096 325.056 54.5459C324.989 54.4823 324.935 54.406 324.897 54.3214C324.859 54.2368 324.838 54.1455 324.836 54.0529C324.833 53.9603 324.849 53.868 324.882 53.7815C324.915 53.6949 324.965 53.6157 325.029 53.5485C325.093 53.4812 325.169 53.4272 325.253 53.3894C325.338 53.3517 325.429 53.331 325.522 53.3286L338.304 52.9759C338.448 52.972 338.589 53.0119 338.709 53.0905C338.829 53.1691 338.923 53.2825 338.977 53.4156C339.031 53.5487 339.043 53.6951 339.011 53.8353C338.98 53.9754 338.907 54.1026 338.801 54.1999Z" fill="white"/>
<path d="M329.902 419.545C326.596 426.415 321.211 431.972 315.135 436.669C295.279 440.94 275.107 443.578 254.821 444.554C253.834 444.603 252.847 444.653 251.854 444.688C246.574 444.906 241.255 445.017 235.896 445.019C226.578 445.019 217.37 444.688 208.273 444.025C207.926 441.931 207.879 439.799 208.132 437.692C209.14 429.447 215.392 421.873 223.504 420.124C231.617 418.375 240.865 423.22 243.325 431.147C244.685 415.857 246.243 399.932 254.37 386.913C261.722 375.128 274.458 366.693 288.266 365.184C296.381 364.339 304.569 365.839 311.858 369.507C312.528 369.846 313.19 370.198 313.845 370.565C318.22 373.046 322.08 376.342 325.215 380.276C333.828 391.18 335.936 407.034 329.902 419.545Z" fill="white"/>
<path d="M313.845 370.565C313.862 370.75 313.831 370.936 313.755 371.106C313.678 371.275 313.559 371.422 313.409 371.531C288.945 391.459 268.977 416.346 254.821 444.554C253.834 444.603 252.847 444.652 251.854 444.688C253.108 442.142 254.41 439.622 255.759 437.127C262.764 424.213 271.004 412.009 280.365 400.687C289.724 389.357 300.173 378.975 311.562 369.69C311.652 369.617 311.752 369.555 311.858 369.507C312.056 369.422 312.271 369.383 312.487 369.392C312.703 369.401 312.914 369.458 313.105 369.56C313.295 369.661 313.461 369.804 313.589 369.978C313.717 370.152 313.805 370.353 313.845 370.565Z" fill="#C7C0F5"/>
<path fill-rule="evenodd" clip-rule="evenodd" d="M338.236 164.537C338.237 169.571 336.443 174.439 333.176 178.267C329.91 182.095 325.386 184.632 320.417 185.42V170.652H325.337L326.275 164.537H320.417C320.22 159.445 320.022 156.589 326.521 157.273V152.075C316.787 149.931 312.727 154.868 313.82 164.537H308.456V170.652H313.82V185.413C288.572 181.527 291.54 143.309 317.111 143.408C319.885 143.407 322.632 143.953 325.195 145.015C327.757 146.076 330.086 147.633 332.048 149.595C334.009 151.557 335.565 153.886 336.627 156.45C337.689 159.014 338.236 161.762 338.236 164.537Z" fill="#5B4DBE"/>
<path d="M422.515 278.205L436 286.73V269.32L422.515 278.205Z" fill="#5B4DBE"/>
<path d="M396 269.32V286.73L409.485 278.205L396 269.32Z" fill="#5B4DBE"/>
<path d="M433.5 264.25H398.5C397.253 264.25 396.263 265.18 396.075 266.378L416 279.505L435.925 266.378C435.738 265.18 434.748 264.25 433.5 264.25Z" fill="#5B4DBE"/>
<path d="M420.225 279.715L416.688 282.045C416.478 282.183 416.24 282.25 416 282.25C415.76 282.25 415.523 282.183 415.313 282.045L411.775 279.713L396.08 289.64C396.273 290.828 397.258 291.75 398.5 291.75H433.5C434.743 291.75 435.728 290.828 435.92 289.64L420.225 279.715Z" fill="#5B4DBE"/>
<g clip-path="url(#clip1)">
<path d="M412.005 75.01C423.609 75.01 433.01 65.6085 433.01 54.005C433.01 42.4015 423.609 33 412.005 33C400.401 33 391 42.4015 391 54.005C391 65.6085 400.401 75.01 412.005 75.01ZM400.612 53.5499L420.864 45.7413C421.804 45.4017 422.625 45.9706 422.32 47.3919L422.322 47.3902L418.874 63.6358C418.618 64.7876 417.934 65.0676 416.976 64.525L411.725 60.6548L409.192 63.0949C408.912 63.375 408.676 63.6113 408.133 63.6113L408.506 58.2673L418.238 49.4749C418.662 49.1021 418.144 48.892 417.585 49.2631L405.558 56.8354L400.373 55.218C399.248 54.861 399.223 54.0925 400.612 53.5499Z" fill="#5B4DBE"/>
</g>
</g>
<defs>
<clipPath id="clip0">
<rect width="527" height="458" fill="white"/>
</clipPath>
<clipPath id="clip1">
<rect width="42.01" height="42.01" fill="white" transform="translate(391 33)"/>
</clipPath>
</defs>
</svg>
