<svg width="43" height="17" viewBox="0 0 43 17" fill="none" xmlns="http://www.w3.org/2000/svg">
<path d="M6.072 16.192C5 16.192 3.952 16.064 2.928 15.808C1.904 15.536 1.088 15.2 0.48 14.8L1.728 12.112C2.304 12.48 3 12.784 3.816 13.024C4.632 13.248 5.432 13.36 6.216 13.36C7.8 13.36 8.592 12.968 8.592 12.184C8.592 11.816 8.376 11.552 7.944 11.392C7.512 11.232 6.848 11.096 5.952 10.984C4.896 10.824 4.024 10.64 3.336 10.432C2.648 10.224 2.048 9.856 1.536 9.328C1.04 8.8 0.792 8.048 0.792 7.072C0.792 6.256 1.024 5.536 1.488 4.912C1.968 4.272 2.656 3.776 3.552 3.424C4.464 3.072 5.536 2.896 6.768 2.896C7.68 2.896 8.584 3 9.48 3.208C10.392 3.4 11.144 3.672 11.736 4.024L10.488 6.688C9.352 6.048 8.112 5.728 6.768 5.728C5.968 5.728 5.368 5.84 4.968 6.064C4.568 6.288 4.368 6.576 4.368 6.928C4.368 7.328 4.584 7.608 5.016 7.768C5.448 7.928 6.136 8.08 7.08 8.224C8.136 8.4 9 8.592 9.672 8.8C10.344 8.992 10.928 9.352 11.424 9.88C11.92 10.408 12.168 11.144 12.168 12.088C12.168 12.888 11.928 13.6 11.448 14.224C10.968 14.848 10.264 15.336 9.336 15.688C8.424 16.024 7.336 16.192 6.072 16.192ZM22.806 15.376C22.438 15.648 21.982 15.856 21.438 16C20.91 16.128 20.35 16.192 19.758 16.192C18.222 16.192 17.03 15.8 16.182 15.016C15.35 14.232 14.934 13.08 14.934 11.56V6.256H12.942V3.376H14.934V0.232H18.678V3.376H21.894V6.256H18.678V11.512C18.678 12.056 18.814 12.48 19.086 12.784C19.374 13.072 19.774 13.216 20.286 13.216C20.878 13.216 21.382 13.056 21.798 12.736L22.806 15.376ZM30.7493 16.192C29.3733 16.192 28.1333 15.912 27.0293 15.352C25.9413 14.776 25.0853 13.984 24.4613 12.976C23.8533 11.968 23.5493 10.824 23.5493 9.544C23.5493 8.264 23.8533 7.12 24.4613 6.112C25.0853 5.104 25.9413 4.32 27.0293 3.76C28.1333 3.184 29.3733 2.896 30.7493 2.896C32.1093 2.896 33.2933 3.184 34.3013 3.76C35.3253 4.32 36.0693 5.128 36.5333 6.184L33.6293 7.744C32.9573 6.56 31.9893 5.968 30.7253 5.968C29.7493 5.968 28.9413 6.288 28.3013 6.928C27.6613 7.568 27.3413 8.44 27.3413 9.544C27.3413 10.648 27.6613 11.52 28.3013 12.16C28.9413 12.8 29.7493 13.12 30.7253 13.12C32.0053 13.12 32.9733 12.528 33.6293 11.344L36.5333 12.928C36.0693 13.952 35.3253 14.752 34.3013 15.328C33.2933 15.904 32.1093 16.192 30.7493 16.192Z" fill="black"/>
<path d="M40.1049 16.192C39.4489 16.192 38.8969 15.968 38.4489 15.52C38.0009 15.072 37.7769 14.512 37.7769 13.84C37.7769 13.152 38.0009 12.6 38.4489 12.184C38.8969 11.752 39.4489 11.536 40.1049 11.536C40.7609 11.536 41.3129 11.752 41.7609 12.184C42.2089 12.6 42.4329 13.152 42.4329 13.84C42.4329 14.512 42.2089 15.072 41.7609 15.52C41.3129 15.968 40.7609 16.192 40.1049 16.192Z" fill="#FF6724"/>
</svg>
