<svg width="278" height="43" viewBox="0 0 278 43" fill="none" xmlns="http://www.w3.org/2000/svg">
<path d="M36.9867 12.8322L36.9482 10.7395L34.7389 9.50859L18.3894 18.693L18.4406 21.6443" fill="#283980"/>
<path d="M18.4742 18.6289V22.9299L3.67978 14.3456V10.0608L18.4742 18.6289Z" fill="#22654B"/>
<path d="M10.777 11.2433L14.6889 9.1458L29.528 17.5406L25.6771 19.7216L10.777 11.2433Z" fill="#248DBB"/>
<path d="M6.894 14.9939L3.67657 13.5624V21.6588H6.894V14.9939Z" fill="#22654B"/>
<path d="M17.1238 8.27302L16.9159 5.29924L3.39977 12.9062L3.09579 16.1688L17.1238 8.27302Z" fill="#248DBB"/>
<path d="M22.9684 2.81643L22.97 2.08945L9.6395 9.57442L10.1243 11.9768L22.9684 4.7647V2.81643Z" fill="#248DBB"/>
<path d="M18.7286 35.6674L15.6951 37.0781L0.0351562 28.0284L2.88143 26.5086" fill="#22654B"/>
<path d="M22.0052 29.1679L19.047 30.5303L3.67657 21.577L6.4508 20.1086" fill="#22654B"/>
<path d="M36.9965 28.4937V28.3974C36.9974 28.3883 36.9974 28.3792 36.9965 28.3702C36.99 28.2664 36.99 28.1625 36.9965 28.0588C36.9965 28.0251 36.9965 27.985 36.9965 27.9432C36.996 27.9379 36.996 27.9326 36.9965 27.9272L33.9952 26.218L19.1894 34.7927L22.8996 36.9415L36.9886 28.8082C36.9886 28.7601 36.9886 28.7023 36.9965 28.6477C37.0044 28.5932 36.9965 28.5419 36.9965 28.4937Z" fill="#283980"/>
<path d="M36.9547 10.8792L18.4934 21.5705V42.9902L36.9547 32.2988L36.9867 27.9578L22.1492 36.5773L22.1267 23.652L36.9867 15.1448L36.9709 12.9735" fill="#41519B"/>
<path d="M2.90911 9.25183L0.000488281 10.8968L3.71069 12.9959L11.3535 8.55694L26.2534 17.0337L30.106 14.8543L15.2669 6.45784L22.9704 2.09912L19.2602 0L18.6778 0.330595" fill="#47C3D3"/>
<path d="M0 10.8696L18.4934 21.5803V25.8635L3.69896 17.297V21.5803L18.4934 30.1485V43L0 32.291V28.006L14.7944 36.5742V32.291L0 23.7227V10.8696Z" fill="#1FB57B"/>
<path d="M8.74035 12.9912L6.1645 14.4403L3.71017 12.996L6.25247 11.5195" fill="#22654B"/>
<path d="M26.2529 17.0336L23.6642 18.5759L21.1476 17.1443L23.8146 15.6454" fill="#283980"/>
<path d="M70.072 31.192C69 31.192 67.952 31.064 66.928 30.808C65.904 30.536 65.088 30.2 64.48 29.8L65.728 27.112C66.304 27.48 67 27.784 67.816 28.024C68.632 28.248 69.432 28.36 70.216 28.36C71.8 28.36 72.592 27.968 72.592 27.184C72.592 26.816 72.376 26.552 71.944 26.392C71.512 26.232 70.848 26.096 69.952 25.984C68.896 25.824 68.024 25.64 67.336 25.432C66.648 25.224 66.048 24.856 65.536 24.328C65.04 23.8 64.792 23.048 64.792 22.072C64.792 21.256 65.024 20.536 65.488 19.912C65.968 19.272 66.656 18.776 67.552 18.424C68.464 18.072 69.536 17.896 70.768 17.896C71.68 17.896 72.584 18 73.48 18.208C74.392 18.4 75.144 18.672 75.736 19.024L74.488 21.688C73.352 21.048 72.112 20.728 70.768 20.728C69.968 20.728 69.368 20.84 68.968 21.064C68.568 21.288 68.368 21.576 68.368 21.928C68.368 22.328 68.584 22.608 69.016 22.768C69.448 22.928 70.136 23.08 71.08 23.224C72.136 23.4 73 23.592 73.672 23.8C74.344 23.992 74.928 24.352 75.424 24.88C75.92 25.408 76.168 26.144 76.168 27.088C76.168 27.888 75.928 28.6 75.448 29.224C74.968 29.848 74.264 30.336 73.336 30.688C72.424 31.024 71.336 31.192 70.072 31.192ZM91.486 18.088V31H87.934V29.464C87.438 30.024 86.846 30.456 86.158 30.76C85.47 31.048 84.726 31.192 83.926 31.192C82.23 31.192 80.886 30.704 79.894 29.728C78.902 28.752 78.406 27.304 78.406 25.384V18.088H82.15V24.832C82.15 26.912 83.022 27.952 84.766 27.952C85.662 27.952 86.382 27.664 86.926 27.088C87.47 26.496 87.742 25.624 87.742 24.472V18.088H91.486ZM102.803 17.896C104.403 17.896 105.691 18.376 106.667 19.336C107.659 20.296 108.155 21.72 108.155 23.608V31H104.411V24.184C104.411 23.16 104.187 22.4 103.739 21.904C103.291 21.392 102.643 21.136 101.795 21.136C100.851 21.136 100.099 21.432 99.5386 22.024C98.9786 22.6 98.6986 23.464 98.6986 24.616V31H94.9546V18.088H98.5306V19.6C99.0266 19.056 99.6426 18.64 100.379 18.352C101.115 18.048 101.923 17.896 102.803 17.896ZM132.05 18.088L127.37 31H123.77L120.866 22.984L117.866 31H114.266L109.61 18.088H113.138L116.186 26.824L119.354 18.088H122.522L125.594 26.824L128.738 18.088H132.05ZM138.577 17.896C140.577 17.896 142.113 18.376 143.185 19.336C144.257 20.28 144.793 21.712 144.793 23.632V31H141.289V29.392C140.585 30.592 139.273 31.192 137.353 31.192C136.361 31.192 135.497 31.024 134.761 30.688C134.041 30.352 133.489 29.888 133.105 29.296C132.721 28.704 132.529 28.032 132.529 27.28C132.529 26.08 132.977 25.136 133.873 24.448C134.785 23.76 136.185 23.416 138.073 23.416H141.049C141.049 22.6 140.801 21.976 140.305 21.544C139.809 21.096 139.065 20.872 138.073 20.872C137.385 20.872 136.705 20.984 136.033 21.208C135.377 21.416 134.817 21.704 134.353 22.072L133.009 19.456C133.713 18.96 134.553 18.576 135.529 18.304C136.521 18.032 137.537 17.896 138.577 17.896ZM138.289 28.672C138.929 28.672 139.497 28.528 139.993 28.24C140.489 27.936 140.841 27.496 141.049 26.92V25.6H138.481C136.945 25.6 136.177 26.104 136.177 27.112C136.177 27.592 136.361 27.976 136.729 28.264C137.113 28.536 137.633 28.672 138.289 28.672ZM160.763 18.088L154.931 31.792C154.339 33.28 153.603 34.328 152.723 34.936C151.859 35.544 150.811 35.848 149.579 35.848C148.907 35.848 148.243 35.744 147.587 35.536C146.931 35.328 146.395 35.04 145.979 34.672L147.347 32.008C147.635 32.264 147.963 32.464 148.331 32.608C148.715 32.752 149.091 32.824 149.459 32.824C149.971 32.824 150.387 32.696 150.707 32.44C151.027 32.2 151.315 31.792 151.571 31.216L151.619 31.096L146.027 18.088H149.891L153.515 26.848L157.163 18.088H160.763ZM170.97 30.376C170.602 30.648 170.146 30.856 169.602 31C169.074 31.128 168.514 31.192 167.922 31.192C166.386 31.192 165.194 30.8 164.346 30.016C163.514 29.232 163.098 28.08 163.098 26.56V21.256H161.106V18.376H163.098V15.232H166.842V18.376H170.058V21.256H166.842V26.512C166.842 27.056 166.978 27.48 167.25 27.784C167.538 28.072 167.938 28.216 168.45 28.216C169.042 28.216 169.546 28.056 169.962 27.736L170.97 30.376ZM185.321 24.592C185.321 24.64 185.297 24.976 185.249 25.6H175.481C175.657 26.4 176.073 27.032 176.729 27.496C177.385 27.96 178.201 28.192 179.177 28.192C179.849 28.192 180.441 28.096 180.953 27.904C181.481 27.696 181.969 27.376 182.417 26.944L184.409 29.104C183.193 30.496 181.417 31.192 179.081 31.192C177.625 31.192 176.337 30.912 175.217 30.352C174.097 29.776 173.233 28.984 172.625 27.976C172.017 26.968 171.713 25.824 171.713 24.544C171.713 23.28 172.009 22.144 172.601 21.136C173.209 20.112 174.033 19.32 175.073 18.76C176.129 18.184 177.305 17.896 178.601 17.896C179.865 17.896 181.009 18.168 182.033 18.712C183.057 19.256 183.857 20.04 184.433 21.064C185.025 22.072 185.321 23.248 185.321 24.592ZM178.625 20.728C177.777 20.728 177.065 20.968 176.489 21.448C175.913 21.928 175.561 22.584 175.433 23.416H181.793C181.665 22.6 181.313 21.952 180.737 21.472C180.161 20.976 179.457 20.728 178.625 20.728ZM194.054 31.192C192.678 31.192 191.438 30.912 190.334 30.352C189.246 29.776 188.39 28.984 187.766 27.976C187.158 26.968 186.854 25.824 186.854 24.544C186.854 23.264 187.158 22.12 187.766 21.112C188.39 20.104 189.246 19.32 190.334 18.76C191.438 18.184 192.678 17.896 194.054 17.896C195.414 17.896 196.598 18.184 197.606 18.76C198.63 19.32 199.374 20.128 199.838 21.184L196.934 22.744C196.262 21.56 195.294 20.968 194.03 20.968C193.054 20.968 192.246 21.288 191.606 21.928C190.966 22.568 190.646 23.44 190.646 24.544C190.646 25.648 190.966 26.52 191.606 27.16C192.246 27.8 193.054 28.12 194.03 28.12C195.31 28.12 196.278 27.528 196.934 26.344L199.838 27.928C199.374 28.952 198.63 29.752 197.606 30.328C196.598 30.904 195.414 31.192 194.054 31.192ZM209.748 17.896C211.348 17.896 212.636 18.376 213.612 19.336C214.604 20.296 215.1 21.72 215.1 23.608V31H211.356V24.184C211.356 23.16 211.132 22.4 210.684 21.904C210.236 21.392 209.588 21.136 208.74 21.136C207.796 21.136 207.044 21.432 206.484 22.024C205.924 22.6 205.644 23.464 205.644 24.616V31H201.9V13.192H205.644V19.432C206.14 18.936 206.74 18.56 207.444 18.304C208.148 18.032 208.916 17.896 209.748 17.896ZM224.874 31.192C223.498 31.192 222.258 30.912 221.154 30.352C220.066 29.776 219.21 28.984 218.586 27.976C217.978 26.968 217.674 25.824 217.674 24.544C217.674 23.264 217.978 22.12 218.586 21.112C219.21 20.104 220.066 19.32 221.154 18.76C222.258 18.184 223.498 17.896 224.874 17.896C226.234 17.896 227.418 18.184 228.426 18.76C229.45 19.32 230.194 20.128 230.658 21.184L227.754 22.744C227.082 21.56 226.114 20.968 224.85 20.968C223.874 20.968 223.066 21.288 222.426 21.928C221.786 22.568 221.466 23.44 221.466 24.544C221.466 25.648 221.786 26.52 222.426 27.16C223.066 27.8 223.874 28.12 224.85 28.12C226.13 28.12 227.098 27.528 227.754 26.344L230.658 27.928C230.194 28.952 229.45 29.752 228.426 30.328C227.418 30.904 226.234 31.192 224.874 31.192ZM232.72 13.192H236.464V31H232.72V13.192ZM252.947 18.088V31H249.395V29.464C248.899 30.024 248.307 30.456 247.619 30.76C246.931 31.048 246.187 31.192 245.387 31.192C243.691 31.192 242.347 30.704 241.355 29.728C240.363 28.752 239.867 27.304 239.867 25.384V18.088H243.611V24.832C243.611 26.912 244.483 27.952 246.227 27.952C247.123 27.952 247.843 27.664 248.387 27.088C248.931 26.496 249.203 25.624 249.203 24.472V18.088H252.947ZM264.048 17.896C265.248 17.896 266.336 18.176 267.312 18.736C268.304 19.28 269.08 20.056 269.64 21.064C270.2 22.056 270.48 23.216 270.48 24.544C270.48 25.872 270.2 27.04 269.64 28.048C269.08 29.04 268.304 29.816 267.312 30.376C266.336 30.92 265.248 31.192 264.048 31.192C262.272 31.192 260.92 30.632 259.992 29.512V31H256.416V13.192H260.16V19.456C261.104 18.416 262.4 17.896 264.048 17.896ZM263.4 28.12C264.36 28.12 265.144 27.8 265.752 27.16C266.376 26.504 266.688 25.632 266.688 24.544C266.688 23.456 266.376 22.592 265.752 21.952C265.144 21.296 264.36 20.968 263.4 20.968C262.44 20.968 261.648 21.296 261.023 21.952C260.416 22.592 260.112 23.456 260.112 24.544C260.112 25.632 260.416 26.504 261.023 27.16C261.648 27.8 262.44 28.12 263.4 28.12Z" fill="black"/>
<path d="M274.402 31.192C273.746 31.192 273.194 30.968 272.746 30.52C272.298 30.072 272.074 29.512 272.074 28.84C272.074 28.152 272.298 27.6 272.746 27.184C273.194 26.752 273.746 26.536 274.402 26.536C275.058 26.536 275.61 26.752 276.058 27.184C276.506 27.6 276.73 28.152 276.73 28.84C276.73 29.512 276.506 30.072 276.058 30.52C275.61 30.968 275.058 31.192 274.402 31.192Z" fill="#FF6724"/>
</svg>
