<svg width="107" height="43" viewBox="0 0 107 43" fill="none" xmlns="http://www.w3.org/2000/svg">
<path d="M36.9867 12.8322L36.9482 10.7395L34.7389 9.50861L18.3894 18.693L18.4406 21.6443" fill="#283980"/>
<path d="M18.4742 18.6289V22.9299L3.67981 14.3456V10.0608L18.4742 18.6289Z" fill="#22654B"/>
<path d="M10.7771 11.2433L14.6889 9.14581L29.5281 17.5406L25.6771 19.7216L10.7771 11.2433Z" fill="#248DBB"/>
<path d="M6.89406 14.9939L3.67664 13.5624V21.6588H6.89406V14.9939Z" fill="#22654B"/>
<path d="M17.1239 8.27303L16.9159 5.29926L3.3998 12.9062L3.09583 16.1688L17.1239 8.27303Z" fill="#248DBB"/>
<path d="M22.9684 2.8164L22.9701 2.08942L9.63953 9.57439L10.1243 11.9768L22.9684 4.76467V2.8164Z" fill="#248DBB"/>
<path d="M18.7286 35.6674L15.6951 37.0781L0.0351562 28.0284L2.88143 26.5086" fill="#22654B"/>
<path d="M22.0053 29.1679L19.047 30.5304L3.67664 21.577L6.45086 20.1086" fill="#22654B"/>
<path d="M36.9965 28.4937V28.3974C36.9975 28.3883 36.9975 28.3792 36.9965 28.3701C36.99 28.2664 36.99 28.1625 36.9965 28.0587C36.9965 28.0251 36.9965 27.9849 36.9965 27.9432C36.9961 27.9378 36.9961 27.9325 36.9965 27.9272L33.9953 26.218L19.1895 34.7926L22.8997 36.9415L36.9886 28.8082C36.9886 28.7601 36.9887 28.7023 36.9965 28.6477C37.0044 28.5932 36.9965 28.5418 36.9965 28.4937Z" fill="#283980"/>
<path d="M36.9547 10.8792L18.4934 21.5706V42.9903L36.9547 32.2988L36.9867 27.9578L22.1492 36.5773L22.1268 23.652L36.9867 15.1448L36.971 12.9735" fill="#41519B"/>
<path d="M2.90911 9.25183L0.000488281 10.8968L3.71069 12.9959L11.3535 8.55694L26.2534 17.0337L30.106 14.8543L15.2669 6.45784L22.9704 2.09912L19.2602 0L18.6778 0.330595" fill="#47C3D3"/>
<path d="M0 10.8696L18.4934 21.5803V25.8636L3.69896 17.297V21.5803L18.4934 30.1485V43L0 32.291V28.0061L14.7944 36.5743V32.291L0 23.7227V10.8696Z" fill="#1FB57B"/>
<path d="M8.74038 12.9912L6.16453 14.4403L3.71021 12.996L6.2525 11.5195" fill="#22654B"/>
<path d="M26.2529 17.0336L23.6642 18.5759L21.1476 17.1444L23.8146 15.6454" fill="#283980"/>
<path d="M70.072 31.192C69 31.192 67.952 31.064 66.928 30.808C65.904 30.536 65.088 30.2 64.48 29.8L65.728 27.112C66.304 27.48 67 27.784 67.816 28.024C68.632 28.248 69.432 28.36 70.216 28.36C71.8 28.36 72.592 27.968 72.592 27.184C72.592 26.816 72.376 26.552 71.944 26.392C71.512 26.232 70.848 26.096 69.952 25.984C68.896 25.824 68.024 25.64 67.336 25.432C66.648 25.224 66.048 24.856 65.536 24.328C65.04 23.8 64.792 23.048 64.792 22.072C64.792 21.256 65.024 20.536 65.488 19.912C65.968 19.272 66.656 18.776 67.552 18.424C68.464 18.072 69.536 17.896 70.768 17.896C71.68 17.896 72.584 18 73.48 18.208C74.392 18.4 75.144 18.672 75.736 19.024L74.488 21.688C73.352 21.048 72.112 20.728 70.768 20.728C69.968 20.728 69.368 20.84 68.968 21.064C68.568 21.288 68.368 21.576 68.368 21.928C68.368 22.328 68.584 22.608 69.016 22.768C69.448 22.928 70.136 23.08 71.08 23.224C72.136 23.4 73 23.592 73.672 23.8C74.344 23.992 74.928 24.352 75.424 24.88C75.92 25.408 76.168 26.144 76.168 27.088C76.168 27.888 75.928 28.6 75.448 29.224C74.968 29.848 74.264 30.336 73.336 30.688C72.424 31.024 71.336 31.192 70.072 31.192ZM86.806 30.376C86.438 30.648 85.982 30.856 85.438 31C84.91 31.128 84.35 31.192 83.758 31.192C82.222 31.192 81.03 30.8 80.182 30.016C79.35 29.232 78.934 28.08 78.934 26.56V21.256H76.942V18.376H78.934V15.232H82.678V18.376H85.894V21.256H82.678V26.512C82.678 27.056 82.814 27.48 83.086 27.784C83.374 28.072 83.774 28.216 84.286 28.216C84.878 28.216 85.382 28.056 85.798 27.736L86.806 30.376ZM94.7493 31.192C93.3733 31.192 92.1333 30.912 91.0293 30.352C89.9413 29.776 89.0853 28.984 88.4613 27.976C87.8533 26.968 87.5493 25.824 87.5493 24.544C87.5493 23.264 87.8533 22.12 88.4613 21.112C89.0853 20.104 89.9413 19.32 91.0293 18.76C92.1333 18.184 93.3733 17.896 94.7493 17.896C96.1093 17.896 97.2933 18.184 98.3013 18.76C99.3253 19.32 100.069 20.128 100.533 21.184L97.6293 22.744C96.9573 21.56 95.9893 20.968 94.7253 20.968C93.7493 20.968 92.9413 21.288 92.3013 21.928C91.6613 22.568 91.3413 23.44 91.3413 24.544C91.3413 25.648 91.6613 26.52 92.3013 27.16C92.9413 27.8 93.7493 28.12 94.7253 28.12C96.0053 28.12 96.9733 27.528 97.6293 26.344L100.533 27.928C100.069 28.952 99.3253 29.752 98.3013 30.328C97.2933 30.904 96.1093 31.192 94.7493 31.192Z" fill="black"/>
<path d="M104.105 31.192C103.449 31.192 102.897 30.968 102.449 30.52C102.001 30.072 101.777 29.512 101.777 28.84C101.777 28.152 102.001 27.6 102.449 27.184C102.897 26.752 103.449 26.536 104.105 26.536C104.761 26.536 105.313 26.752 105.761 27.184C106.209 27.6 106.433 28.152 106.433 28.84C106.433 29.512 106.209 30.072 105.761 30.52C105.313 30.968 104.761 31.192 104.105 31.192Z" fill="#FF6724"/>
</svg>
