<svg width="51" height="35" viewBox="0 0 51 35" fill="none" xmlns="http://www.w3.org/2000/svg">
<g clip-path="url(#clip0)">
<path d="M40.3748 34.5H12.7498C6.10786 34.504 0.575469 29.4082 0.0345923 22.7883C-0.506284 16.1684 4.12556 10.2422 10.6801 9.16787C13.697 3.81901 19.3588 0.50746 25.4998 0.499876C29.3291 0.485402 33.0488 1.77776 36.0441 4.1635C38.9853 6.49645 41.0763 9.73307 41.9941 13.3733C47.4849 14.217 51.3989 19.148 50.9744 24.687C50.5498 30.226 45.9301 34.5029 40.3748 34.5ZM25.4998 4.74998C20.8922 4.75543 16.6443 7.24071 14.3818 11.2546L13.3873 13.0375L11.3707 13.3669C7.01505 14.0966 3.94384 18.0404 4.3034 22.4421C4.66296 26.8438 8.33349 30.2368 12.7498 30.25H40.3748C43.708 30.2534 46.4812 27.6885 46.7375 24.3652C46.9938 21.0418 44.6467 18.082 41.3523 17.5744L38.5558 17.1494L37.8716 14.4039C36.459 8.72334 31.3533 4.73928 25.4998 4.74998ZM28.5811 26H22.4186V19.625H16.9998L25.4998 11.125L33.9998 19.625H28.5811V26Z" fill="#2E3A59"/>
</g>
<defs>
<clipPath id="clip0">
<rect width="51" height="35" fill="white"/>
</clipPath>
</defs>
</svg>
